PathFileType	4	(X/Y/Z)	67_2_84_p0_0-276.trc
DataRate	CameraRate	NumFrames	NumMarkers	Units	OrigDataRate	OrigDataStartFrame	OrigNumFrames
60.0	60.0	4	27	m	60.0	0	277
Frame#	Time	RHip			RKnee			RAnkle			RBigToe			RSmallToe			RHeel			LHip			LKnee			LAnkle			LBigToe			LSmallToe			LHeel			Neck			Head			Nose			RShoulder			RElbow			RWrist			RThumb			RIndex			RPinky			LShoulder			LElbow			LWrist			LThumb			LIndex			LPinky			
		X1	Y1	Z1	X2	Y2	Z2	X3	Y3	Z3	X4	Y4	Z4	X5	Y5	Z5	X6	Y6	Z6	X7	Y7	Z7	X8	Y8	Z8	X9	Y9	Z9	X10	Y10	Z10	X11	Y11	Z11	X12	Y12	Z12	X13	Y13	Z13	X14	Y14	Z14	X15	Y15	Z15	X16	Y16	Z16	X17	Y17	Z17	X18	Y18	Z18	X19	Y19	Z19	X20	Y20	Z20	X21	Y21	Z21	X22	Y22	Z22	X23	Y23	Z23	X24	Y24	Z24	X25	Y25	Z25	X26	Y26	Z26	X27	Y27	Z27	
0	0.0	0.38939270709444557	0.5663411291426397	-0.11078893543796088	0.3755933080118531	0.7686290564024992	0.30456839383777773	0.3459566598842116	0.9541891021322015	0.7471645087400739	0.34027414718965504	0.6890236853601747	0.8158491793954045	0.3906202736199884	0.7407344097555506	0.8181404223282779	0.3369100515158964	0.9964724555149842	0.7995273306908643	0.1816906238862423	0.5847147166018631	-0.10034413014480806	0.18190071564857174	0.7440540153279104	0.3105629198685186	0.1863574309548164	0.8800703008202668	0.7438761931479715	0.20957646718561104	0.6594290523146685	0.7948476737813546	0.14568588723328293	0.7201567096330286	0.7910221458604744	0.19455718816126724	0.9590976597138275	0.8043246719716276	0.29053146011756553	0.4324316541002373	-0.6546063050777783	0.29910073848990754	0.3620063906866256	-0.891774035869499	0.3270489103453983	0.2943305169616449	-0.7410476779100272	0.44455642162920744	0.4940266329937351	-0.5641465992182998	0.47433921323674105	0.4877298892720713	-0.2939320324587866	0.3623311990169589	0.40211609677082766	-0.09158808551916961	0.29052084547325385	0.36562341151090605	0.00015207027276702183	0.2820999605962331	0.3793700371046067	0.004383738243407765	0.29395570412285116	0.395871867355517	0.003410486037407315	0.13693449481251171	0.4905292912657778	-0.5825535655001749	0.12650490667111114	0.45137219016775454	-0.3018614272073509	0.24470752984046984	0.43329522050837693	-0.10916152629889213	0.3243330483753042	0.37616466217697586	-0.02328683560051952	0.3203478652212527	0.37414528484273124	-0.010172080703163219	0.28250668967548265	0.3830448270714381	0.012707068036932183
1	0.016666666666666666	0.38950574290744044	0.5665846776790704	-0.1070273579775339	0.37514713357452883	0.7682017930067452	0.3050819821515113	0.34858618376273265	0.967673585964551	0.74555546732701	0.3411586191537613	0.6886080433807601	0.8157584689328484	0.39288781990255023	0.7394695736710816	0.8145266239940425	0.33704614460944915	0.9961940076361533	0.7993512589720494	0.18167047501000397	0.5844213962585784	-0.10032999650488451	0.18117574295355682	0.7403967368799713	0.30625174189072424	0.18576819304142786	0.8755901092280926	0.7429520765137629	0.21285948154485482	0.6741837201528856	0.8031746558777629	0.14627077509385827	0.7224805067323323	0.7957146620156257	0.19578214314862238	0.9595784093711263	0.8090413476767514	0.29486128072547346	0.4340371441833252	-0.65500243846874	0.29909774039428655	0.3623050794141873	-0.8918695880633807	0.330079388624858	0.3059371383225571	-0.7402419301331441	0.44450280592171276	0.49414413941342994	-0.5641971898394005	0.47734798948571616	0.49826508322001933	-0.29782219581272307	0.3624469661948117	0.4022944075629125	-0.08758095385884346	0.2859301070873989	0.3781690919411367	0.003498713990132953	0.2857153344901084	0.379488156419617	0.007472883263822333	0.2935940571538364	0.39721227845556417	0.0036030456994197322	0.14211453993676182	0.47614588281681597	-0.5804730013353187	0.12645711559653863	0.45167668289991675	-0.30182523822066654	0.24481251475838176	0.4331857709749468	-0.10526901944775545	0.32397829041883053	0.37641295975718525	-0.023136705124371805	0.3199392407531098	0.37378359731682287	-0.010059334858272562	0.2825598315406484	0.38310110813540266	0.012812394474203372
2	0.03333333333333333	0.38955869644886715	0.5663514307671045	-0.10708922242823647	0.3753654702007782	0.7675587658218685	0.30886662085216865	0.3485703251167708	0.9677998925865018	0.7455999317576897	0.34605225162920844	0.678877717698506	0.8173766145371391	0.3927994194997269	0.7418975633363899	0.8147998290943337	0.33732564736592796	0.9962391151838803	0.8040148650658794	0.18170321825407001	0.5841277390553233	-0.10023061302290792	0.18106683960706085	0.7400703860580073	0.30640545675758346	0.18603053120304724	0.8758826281689551	0.7428970571611567	0.21371376636079012	0.6771591364640729	0.8080486035908478	0.14890493815727232	0.7393692552777196	0.8003724004095785	0.19600383546751496	0.9613768083515782	0.8095517481446657	0.294793580228453	0.4340026118489258	-0.6550069050952761	0.29903659489590106	0.3627365135295363	-0.8920616160933388	0.32994783781254433	0.3054183261253674	-0.7435984137681989	0.4445594761023209	0.49414568179559026	-0.5641556597215545	0.4773135559684125	0.4982380168535348	-0.29780257738676513	0.3625135448304053	0.40210167362869376	-0.08742892162835703	0.28587961205512924	0.37858443231873623	0.0036294566107689507	0.2861917413641382	0.3821750840923404	0.01261375758312646	0.2937629076560639	0.39786398121144934	0.006584954165891748	0.1420895760053629	0.4763314963502586	-0.5804525597774575	0.12660478296914662	0.4515608240667928	-0.3017498490250577	0.24437852600392612	0.4337307405789952	-0.10198939107152565	0.32365225041075213	0.3772814031054731	-0.023004722917669942	0.31585775932569415	0.3877745041687618	-0.006011356317950246	0.28266148968491667	0.3833364964762735	0.013005803464883645
3	0.05	0.3896145725021761	0.5662736476635996	-0.10710010251316888	0.37536418636115043	0.7676106638762904	0.3088967019386792	0.3474447420830494	0.9695585087104005	0.7507126109519343	0.3453295153345278	0.6768841709227542	0.8123915226855433	0.396953366343093	0.7448283229890453	0.818647402336362	0.3372719222082523	0.9965540385668443	0.8041880543355087	0.18169760070745528	0.5840979339348814	-0.10022178572731215	0.1810432981739795	0.7401478534704756	0.3064597959534686	0.185753139835571	0.8756954868083299	0.743056205472919	0.2136299750434431	0.6769173196651714	0.8079697524936481	0.14875840861273318	0.7390943595178909	0.8003676583463816	0.19590560443908206	0.9613571957961611	0.809655594042714	0.2948738616065218	0.43432444838390577	-0.6550632065414576	0.29910484123593223	0.3629686712432919	-0.8921318279711964	0.32698683777451115	0.2942320531298191	-0.7412458174989139	0.4446071100972961	0.4941436951971754	-0.5641129134512705	0.4772485044893761	0.4982729282369158	-0.2977675018427908	0.3664992617017692	0.38921396736937075	-0.0804788962421195	0.2891258134206585	0.379438429311614	0.0036546862958835667	0.2901741031994259	0.38267132455743896	0.015677162826797254	0.2935836250595889	0.39834350443139244	0.003475282702251493	0.14207316574734907	0.47635082818577207	-0.5803687872746138	0.12652703388916703	0.4513792506108903	-0.3017337686624497	0.24438176998251496	0.4336732172354456	-0.10194566753133594	0.3237709788443439	0.3779024991307826	-0.023089630172761538	0.31598015685335634	0.3884610084764921	-0.005955863582147423	0.2826458428669564	0.3831569402183108	0.01284672125799284
